<?xml version="1.0" standalone="no"?>
<!DOCTYPE svg PUBLIC "-//W3C//DTD SVG 20010904//EN"
 "http://www.w3.org/TR/2001/REC-SVG-20010904/DTD/svg10.dtd">
<svg version="1.0" xmlns="http://www.w3.org/2000/svg"
 width="512.000000pt" height="512.000000pt" viewBox="0 0 512.000000 512.000000"
 preserveAspectRatio="xMidYMid meet">
<metadata>
Created by potrace 1.11, written by Peter Selinger 2001-2013
</metadata>
<g transform="translate(0.000000,512.000000) scale(0.100000,-0.100000)"
fill="#000000" stroke="none">
<path d="M2378 5115 c-1 -1 -37 -6 -78 -9 -41 -4 -84 -9 -95 -11 -11 -3 -36
-7 -55 -9 -107 -15 -248 -50 -385 -95 -426 -138 -800 -381 -1110 -723 -318
-350 -548 -828 -620 -1293 -2 -11 -6 -36 -9 -55 -22 -131 -29 -543 -11 -650 3
-19 15 -87 25 -150 155 -922 827 -1698 1725 -1992 85 -28 249 -70 325 -83 319
-56 631 -56 945 1 25 4 112 24 175 39 206 50 449 154 669 284 575 341 1003
919 1165 1576 13 55 27 116 30 135 3 19 8 44 10 55 2 12 7 48 11 80 4 33 10
69 12 80 11 52 9 439 -3 545 -92 789 -520 1467 -1194 1894 -285 180 -702 330
-1005 362 -27 3 -61 8 -75 11 -26 6 -446 14 -452 8z"/>
</g>
</svg>
